# xmcd
#
# Track frame offsets:
#	150
#	17642
#	30292
#	37952
#	57777
#	65757
#	78267
#	89642
#	100392
#	115552
#	132007
#	141937
#	155710
#	169657
#
# Disc length: 2388 seconds
#
# Revision: 1
# Processed by: cddbd v1.5.2PL0 Copyright (c) Steve Scherf et al.
# Submitted via: audiograbber 1.83.01
#
DISCID=af09520e
DTITLE=Montanara Chor - Jenseits des Tales
DYEAR=1991
DGENRE=Chorus
TTITLE0=Greensleeves
TTITLE1=Es waren zwei Königskinder
TTITLE2=Aus grauer Städte Mauern
TTITLE3=Waldandacht (Frühmorgens, wenn die Hähne kräh´n)
TTITLE4=Droben im Oberland
TTITLE5=Hoch auf dem gelben Wagen
TTITLE6=Wenn die bunten Fahnen wehen
TTITLE7=Kein schöner Land in dieser Zeit
TTITLE8=Das Lied der Berge (La Montanara)
TTITLE9=Ich bin ein freier Wildbretschütz
TTITLE10=Heia Safari (Wie oft sind wir geschritten)
TTITLE11=Jenseits des Tales
TTITLE12=Es löscht das Meer die Sonne aus
TTITLE13=Jetzt kommen die lustigen Tage
EXTD=
EXTT0=
EXTT1=
EXTT2=
EXTT3=
EXTT4=
EXTT5=
EXTT6=
EXTT7=
EXTT8=
EXTT9=
EXTT10=
EXTT11=
EXTT12=
EXTT13=
PLAYORDER=
